<?xml version="1.0" encoding="utf-8"?>
<!-- Generator: Adobe Illustrator 26.0.3, SVG Export Plug-In . SVG Version: 6.00 Build 0)  -->
<svg version="1.1" id="a" xmlns="http://www.w3.org/2000/svg" xmlns:xlink="http://www.w3.org/1999/xlink" x="0px" y="0px"
	 viewBox="0 0 504.8 85.8" style="enable-background:new 0 0 504.8 85.8;" xml:space="preserve">
<style type="text/css">
	.st0{fill:#FFFFFF;}
	.st1{fill:#FFFFFF;stroke:#231F20;stroke-width:0.25;stroke-miterlimit:10;}
	.st2{fill:#BF2026;}
</style>
<g>
	<path class="st0" d="M147.1,75h-2.1l-0.8-2.6h-3.8l-0.8,2.6h-2l3.7-11.5h2L147.1,75L147.1,75z M143.6,70.5l-1.3-4.2l-1.3,4.2H143.6
		z"/>
	<path class="st0" d="M151.4,75V63.6h1.8v4.1c0.3-0.4,0.6-0.7,0.9-0.9c0.3-0.2,0.7-0.3,1.1-0.3c0.8,0,1.5,0.4,2,1.1
		c0.6,0.7,0.8,1.8,0.8,3.2s-0.3,2.5-0.9,3.2s-1.2,1.1-2,1.1c-0.4,0-0.8-0.1-1.1-0.4c-0.4-0.2-0.7-0.6-1-1.1V75L151.4,75L151.4,75z
		 M153.2,70.7c0,0.7,0.1,1.3,0.2,1.6c0.1,0.4,0.3,0.7,0.6,0.9s0.5,0.3,0.8,0.3c0.4,0,0.7-0.2,1-0.6c0.3-0.4,0.4-1.1,0.4-2
		c0-0.9-0.1-1.6-0.4-2.1c-0.3-0.4-0.6-0.6-1.1-0.6s-0.8,0.2-1.1,0.6S153.2,69.9,153.2,70.7z"/>
	<path class="st0" d="M162.4,72.7l1.8-0.3c0.2,0.9,0.6,1.3,1.4,1.3c0.4,0,0.8-0.1,1-0.2c0.2-0.2,0.3-0.4,0.3-0.7
		c0-0.2-0.1-0.3-0.1-0.4c-0.1-0.1-0.3-0.2-0.6-0.3c-1.5-0.4-2.4-0.8-2.8-1.1c-0.5-0.4-0.8-1.1-0.8-1.8s0.2-1.4,0.7-1.9
		c0.5-0.5,1.2-0.7,2.1-0.7s1.6,0.2,2,0.5c0.5,0.3,0.8,0.9,1,1.7l-1.7,0.4c-0.1-0.7-0.6-1-1.3-1c-0.4,0-0.8,0.1-0.9,0.2
		s-0.3,0.3-0.3,0.5c0,0.2,0.1,0.3,0.3,0.4c0.2,0.1,0.7,0.3,1.6,0.6c1,0.3,1.7,0.6,2.1,1c0.4,0.4,0.5,0.9,0.5,1.6
		c0,0.8-0.3,1.5-0.8,2c-0.6,0.5-1.3,0.8-2.3,0.8c-0.9,0-1.6-0.2-2.2-0.7S162.5,73.5,162.4,72.7L162.4,72.7z"/>
	<path class="st0" d="M177.7,72.4l1.8,0.4c-0.2,0.8-0.6,1.4-1.1,1.9c-0.5,0.4-1.1,0.6-1.9,0.6c-1,0-1.8-0.3-2.3-1
		c-0.6-0.8-1-1.9-1-3.3s0.3-2.5,1-3.3c0.6-0.7,1.3-1.1,2.1-1.1c1,0,1.7,0.4,2.3,1.1c0.6,0.8,0.9,2,0.9,3.7v0.2H175
		c0,0.7,0.2,1.2,0.4,1.5c0.3,0.4,0.6,0.5,1,0.5C177.1,73.6,177.5,73.2,177.7,72.4L177.7,72.4z M177.8,70.2c0-0.7-0.1-1.1-0.4-1.5
		c-0.3-0.3-0.6-0.5-0.9-0.5c-0.4,0-0.7,0.2-1,0.5c-0.3,0.3-0.4,0.8-0.4,1.4L177.8,70.2L177.8,70.2z"/>
	<path class="st0" d="M190.6,75h-1.8v-4.2c0-0.8,0-1.4-0.1-1.7s-0.2-0.5-0.4-0.7s-0.4-0.2-0.6-0.2c-0.3,0-0.6,0.1-0.8,0.3
		c-0.2,0.2-0.4,0.5-0.5,0.8s-0.1,1-0.1,1.9V75h-1.8v-8.3h1.7v1.2c0.3-0.5,0.6-0.8,1-1.1s0.8-0.3,1.2-0.3c0.5,0,1,0.1,1.3,0.4
		c0.4,0.3,0.6,0.6,0.8,1.1s0.2,1.1,0.2,1.9L190.6,75L190.6,75z"/>
	<path class="st0" d="M199,66.7v1.8h-1.2v3.3c0,0.7,0,1.2,0.1,1.3c0.1,0.2,0.2,0.3,0.4,0.3c0.2,0,0.4-0.1,0.7-0.2l0.2,1.7
		c-0.4,0.2-0.9,0.3-1.4,0.3c-0.5,0-0.8-0.1-1.1-0.3c-0.3-0.2-0.5-0.5-0.6-0.9c-0.1-0.3-0.1-0.9-0.1-1.8v-3.6h-0.8v-1.8h0.8v-1.7
		l1.8-1.3v2.9L199,66.7L199,66.7z"/>
	<path class="st0" d="M207.7,72.4l1.8,0.4c-0.2,0.8-0.6,1.4-1.1,1.9c-0.5,0.4-1.1,0.6-1.9,0.6c-1,0-1.8-0.3-2.3-1
		c-0.6-0.8-1-1.9-1-3.3s0.3-2.5,1-3.3c0.6-0.7,1.3-1.1,2.1-1.1c1,0,1.7,0.4,2.3,1.1c0.6,0.8,0.9,2,0.9,3.7v0.2H205
		c0,0.7,0.2,1.2,0.4,1.5c0.3,0.4,0.6,0.5,1,0.5C207.1,73.6,207.5,73.2,207.7,72.4L207.7,72.4z M207.8,70.2c0-0.7-0.1-1.1-0.4-1.5
		c-0.3-0.3-0.6-0.5-0.9-0.5c-0.4,0-0.7,0.2-1,0.5c-0.3,0.3-0.4,0.8-0.4,1.4L207.8,70.2L207.8,70.2z"/>
	<path class="st0" d="M218.4,72.4l1.8,0.4c-0.2,0.8-0.6,1.4-1.1,1.9c-0.5,0.4-1.1,0.6-1.9,0.6c-1,0-1.8-0.3-2.3-1
		c-0.6-0.8-1-1.9-1-3.3s0.3-2.5,1-3.3c0.6-0.7,1.3-1.1,2.1-1.1c1,0,1.7,0.4,2.3,1.1c0.6,0.8,0.9,2,0.9,3.7v0.2h-4.5
		c0,0.7,0.2,1.2,0.4,1.5c0.3,0.4,0.6,0.5,1,0.5C217.8,73.6,218.2,73.2,218.4,72.4L218.4,72.4z M218.5,70.2c0-0.7-0.1-1.1-0.4-1.5
		c-0.3-0.3-0.6-0.5-0.9-0.5c-0.4,0-0.7,0.2-1,0.5c-0.3,0.3-0.4,0.8-0.4,1.4L218.5,70.2L218.5,70.2z"/>
	<path class="st0" d="M232.3,63.6h3.8c1,0,1.8,0.1,2.2,0.3s0.8,0.5,1.1,1s0.4,1,0.4,1.6c0,0.6-0.1,1.1-0.4,1.5s-0.6,0.8-1,1
		c0.6,0.2,1,0.5,1.3,1c0.3,0.5,0.5,1.1,0.5,1.8c0,0.8-0.2,1.5-0.6,2.1c-0.4,0.6-0.9,0.9-1.4,1.1c-0.4,0.1-1.3,0.1-2.6,0.1h-3.2
		L232.3,63.6L232.3,63.6z M234.2,65.5v2.7h1.2c0.8,0,1.2,0,1.4,0c0.3-0.1,0.6-0.2,0.8-0.4s0.3-0.5,0.3-0.9c0-0.3-0.1-0.6-0.2-0.8
		s-0.3-0.3-0.5-0.4c-0.2-0.1-0.8-0.1-1.8-0.1L234.2,65.5L234.2,65.5z M234.2,70.1v3.1h1.8c0.8,0,1.3,0,1.5-0.1s0.4-0.2,0.6-0.5
		c0.1-0.2,0.2-0.5,0.2-0.9s-0.1-0.7-0.2-0.9s-0.4-0.4-0.6-0.5c-0.3-0.1-0.8-0.1-1.6-0.1L234.2,70.1L234.2,70.1z"/>
	<path class="st0" d="M246.5,69.3l-1.6-0.4c0.2-0.8,0.5-1.4,1-1.8s1.1-0.6,2-0.6c0.8,0,1.3,0.1,1.7,0.3c0.4,0.2,0.7,0.5,0.9,0.9
		s0.3,1,0.3,2l0,2.6c0,0.7,0,1.3,0.1,1.6s0.2,0.7,0.3,1.1h-1.8l-0.2-0.9c-0.3,0.4-0.6,0.6-1,0.8s-0.7,0.3-1.1,0.3
		c-0.7,0-1.2-0.2-1.6-0.7s-0.6-1-0.6-1.8c0-0.5,0.1-0.9,0.3-1.2c0.2-0.3,0.4-0.6,0.7-0.8s0.8-0.4,1.5-0.6c0.8-0.2,1.4-0.4,1.7-0.5
		c0-0.5,0-0.8-0.1-0.9s-0.2-0.3-0.4-0.3s-0.4-0.1-0.7-0.1s-0.6,0.1-0.8,0.2S246.7,68.8,246.5,69.3L246.5,69.3z M248.9,71.1
		c-0.2,0.1-0.6,0.2-1.1,0.3c-0.6,0.2-0.9,0.3-1.1,0.5s-0.3,0.4-0.3,0.7c0,0.3,0.1,0.6,0.3,0.8s0.4,0.3,0.7,0.3
		c0.2,0,0.5-0.1,0.8-0.3c0.2-0.2,0.4-0.4,0.5-0.6s0.1-0.7,0.1-1.3V71.1L248.9,71.1z"/>
	<path class="st0" d="M255.9,75V63.6h1.8V75H255.9L255.9,75z"/>
	<path class="st0" d="M263,75V63.6h1.8V75H263z"/>
	<path class="st0" d="M269.7,70.8c0-0.8,0.2-1.6,0.5-2.2c0.3-0.7,0.8-1.2,1.3-1.5s1.1-0.5,1.8-0.5c1.1,0,2,0.4,2.6,1.3
		s0.9,1.9,0.9,3c0,0.9-0.2,1.6-0.5,2.3s-0.8,1.2-1.3,1.6s-1.1,0.5-1.7,0.5c-1,0-1.9-0.4-2.5-1.2C270,73.3,269.7,72.2,269.7,70.8
		L269.7,70.8z M271.5,70.9c0,0.8,0.2,1.5,0.5,1.9s0.7,0.7,1.2,0.7s0.8-0.2,1.2-0.7c0.3-0.4,0.5-1.1,0.5-1.9s-0.2-1.5-0.5-1.9
		s-0.7-0.7-1.2-0.7s-0.8,0.2-1.2,0.7S271.5,70.1,271.5,70.9L271.5,70.9z"/>
	<path class="st0" d="M284.7,66.7v1.8h-1.2v3.3c0,0.7,0,1.2,0,1.3c0.1,0.2,0.2,0.3,0.5,0.3c0.2,0,0.4-0.1,0.7-0.2l0.2,1.7
		c-0.4,0.2-0.9,0.3-1.4,0.3c-0.5,0-0.8-0.1-1.1-0.3c-0.3-0.2-0.5-0.5-0.5-0.9c-0.1-0.3-0.1-0.9-0.1-1.8v-3.6h-0.8v-1.8h0.8v-1.7
		l1.8-1.3v2.9L284.7,66.7L284.7,66.7z"/>
	<path class="st0" d="M288.7,72.7l1.8-0.3c0.2,0.9,0.6,1.3,1.5,1.3c0.4,0,0.8-0.1,1-0.2c0.2-0.2,0.3-0.4,0.3-0.7
		c0-0.2,0-0.3-0.1-0.4c-0.1-0.1-0.3-0.2-0.6-0.3c-1.5-0.4-2.4-0.8-2.8-1.1c-0.5-0.4-0.8-1.1-0.8-1.8s0.2-1.4,0.7-1.9
		c0.5-0.5,1.2-0.7,2.1-0.7s1.6,0.2,2,0.5s0.8,0.9,1,1.7l-1.7,0.4c-0.1-0.7-0.6-1-1.3-1c-0.4,0-0.8,0.1-1,0.2s-0.3,0.3-0.3,0.5
		c0,0.2,0.1,0.3,0.3,0.4c0.2,0.1,0.7,0.3,1.6,0.6c1,0.3,1.7,0.6,2,1c0.4,0.4,0.5,0.9,0.5,1.6c0,0.8-0.3,1.5-0.8,2s-1.3,0.8-2.3,0.8
		c-0.9,0-1.6-0.2-2.2-0.7S288.9,73.5,288.7,72.7L288.7,72.7z"/>
	<path class="st0" d="M306.4,66.7h1v-0.6c0-0.8,0.1-1.3,0.2-1.6c0.1-0.3,0.4-0.6,0.7-0.8c0.3-0.2,0.7-0.3,1.2-0.3
		c0.5,0,1,0.1,1.5,0.3l-0.2,1.5c-0.3-0.1-0.6-0.1-0.8-0.1s-0.4,0.1-0.5,0.2s-0.2,0.4-0.2,0.9v0.6h1.3v1.7h-1.3V75h-1.8v-6.6h-1
		L306.4,66.7L306.4,66.7z"/>
	<path class="st0" d="M314.6,70.8c0-0.8,0.2-1.6,0.5-2.2c0.3-0.7,0.8-1.2,1.3-1.5s1.1-0.5,1.8-0.5c1.1,0,2,0.4,2.6,1.3
		s0.9,1.9,0.9,3c0,0.9-0.2,1.6-0.5,2.3s-0.8,1.2-1.3,1.6s-1.1,0.5-1.7,0.5c-1,0-1.9-0.4-2.5-1.2C314.9,73.3,314.6,72.2,314.6,70.8
		L314.6,70.8z M316.4,70.9c0,0.8,0.2,1.5,0.5,1.9s0.7,0.7,1.2,0.7s0.8-0.2,1.2-0.7c0.3-0.4,0.5-1.1,0.5-1.9s-0.2-1.5-0.5-1.9
		s-0.7-0.7-1.2-0.7s-0.8,0.2-1.2,0.7S316.4,70.1,316.4,70.9L316.4,70.9z"/>
	<path class="st0" d="M328.2,75h-1.8v-8.3h1.7v1.2c0.3-0.6,0.5-0.9,0.8-1.1c0.2-0.2,0.5-0.3,0.8-0.3c0.4,0,0.8,0.1,1.2,0.4l-0.6,1.9
		c-0.3-0.2-0.6-0.4-0.8-0.4c-0.2,0-0.5,0.1-0.7,0.3s-0.3,0.5-0.4,1s-0.1,1.4-0.1,2.7L328.2,75L328.2,75z"/>
	<path class="st0" d="M342.1,63.6h1.9v6.2c0,1,0,1.6,0.1,1.9c0.1,0.5,0.3,0.9,0.6,1.2c0.3,0.3,0.7,0.4,1.2,0.4
		c0.4,0,0.8-0.1,1.1-0.3c0.3-0.2,0.5-0.5,0.6-0.8c0.1-0.3,0.1-1.1,0.1-2.2v-6.3h1.9v6c0,1.5-0.1,2.7-0.2,3.3
		c-0.2,0.7-0.5,1.2-1.1,1.7c-0.6,0.4-1.3,0.6-2.3,0.6s-1.7-0.2-2.3-0.5s-1-0.8-1.2-1.5c-0.2-0.6-0.4-1.8-0.4-3.5L342.1,63.6
		L342.1,63.6z"/>
	<path class="st0" d="M353.4,75v-2.2h1.8V75H353.4z"/>
	<path class="st0" d="M358.5,71.3l1.9-0.2c0.2,1.5,0.9,2.2,2,2.2c0.6,0,1-0.2,1.4-0.4c0.3-0.3,0.5-0.7,0.5-1.1
		c0-0.3-0.1-0.5-0.2-0.7s-0.3-0.3-0.5-0.4s-0.8-0.3-1.7-0.6c-0.8-0.2-1.4-0.5-1.8-0.8s-0.7-0.7-0.9-1.1s-0.3-1-0.3-1.5
		c0-0.6,0.1-1.2,0.4-1.7c0.3-0.5,0.7-0.9,1.2-1.1c0.5-0.3,1.1-0.4,1.9-0.4c1.1,0,2,0.3,2.6,0.9c0.6,0.6,1,1.5,1,2.6l-1.9,0.1
		c-0.1-0.6-0.3-1-0.5-1.3c-0.3-0.2-0.7-0.4-1.2-0.4s-0.9,0.1-1.2,0.3s-0.4,0.5-0.4,0.8s0.1,0.6,0.4,0.8c0.2,0.2,0.8,0.4,1.7,0.7
		c1,0.3,1.6,0.6,2.1,0.9c0.4,0.3,0.8,0.7,1,1.2s0.3,1.1,0.3,1.8c0,1-0.3,1.8-0.9,2.5c-0.6,0.7-1.6,1-2.9,1
		C360,75.2,358.8,73.9,358.5,71.3L358.5,71.3z"/>
	<path class="st0" d="M369.5,75v-2.2h1.8V75H369.5z"/>
	<path class="st0" d="M388.1,70.8l1.8,0.7c-0.3,1.3-0.8,2.2-1.4,2.8c-0.7,0.6-1.5,0.9-2.5,0.9c-1.2,0-2.2-0.5-3-1.4
		c-0.9-1.1-1.3-2.6-1.3-4.4c0-1.9,0.4-3.5,1.3-4.6c0.8-1,1.8-1.4,3.1-1.4c1,0,1.9,0.4,2.6,1.1c0.5,0.5,0.9,1.3,1.1,2.3l-1.9,0.6
		c-0.1-0.6-0.4-1.1-0.7-1.4c-0.4-0.3-0.8-0.5-1.3-0.5c-0.7,0-1.3,0.3-1.7,0.9c-0.4,0.6-0.7,1.6-0.7,3s0.2,2.5,0.6,3.1s1,0.9,1.7,0.9
		c0.5,0,0.9-0.2,1.3-0.6C387.6,72.3,387.9,71.7,388.1,70.8L388.1,70.8z"/>
	<path class="st0" d="M395,65.6v-2h1.8v2H395z M395,75v-8.3h1.8V75H395z"/>
	<path class="st0" d="M405.1,66.7v1.8h-1.2v3.3c0,0.7,0,1.2,0,1.3c0.1,0.2,0.2,0.3,0.5,0.3c0.2,0,0.4-0.1,0.7-0.2l0.2,1.7
		c-0.4,0.2-0.9,0.3-1.4,0.3c-0.5,0-0.8-0.1-1.1-0.3c-0.3-0.2-0.5-0.5-0.5-0.9c-0.1-0.3-0.1-0.9-0.1-1.8v-3.6h-0.8v-1.8h0.8v-1.7
		l1.8-1.3v2.9L405.1,66.7L405.1,66.7z"/>
	<path class="st0" d="M409.9,65.6v-2h1.8v2H409.9z M409.9,75v-8.3h1.8V75H409.9z"/>
	<path class="st0" d="M416.2,75v-1.7l2.5-3.6c0.4-0.6,0.7-1,0.9-1.2c-0.2,0-0.5,0-0.8,0l-2.4,0v-1.8h5.6v1.6l-2.6,3.7l-0.9,1.2
		c0.5,0,0.8-0.1,0.9-0.1h2.8v1.9L416.2,75L416.2,75z"/>
	<path class="st0" d="M430.9,72.4l1.8,0.4c-0.2,0.8-0.6,1.4-1.1,1.9c-0.5,0.4-1.1,0.6-1.9,0.6c-1,0-1.8-0.3-2.3-1
		c-0.6-0.8-1-1.9-1-3.3s0.3-2.5,1-3.3c0.5-0.7,1.3-1.1,2.1-1.1c1,0,1.7,0.4,2.3,1.1c0.6,0.8,1,2,1,3.7v0.2h-4.5
		c0,0.7,0.2,1.2,0.4,1.5c0.3,0.4,0.6,0.5,1,0.5C430.3,73.6,430.7,73.2,430.9,72.4L430.9,72.4z M431,70.2c0-0.7-0.1-1.1-0.4-1.5
		c-0.3-0.3-0.6-0.5-0.9-0.5c-0.4,0-0.7,0.2-1,0.5c-0.3,0.3-0.4,0.8-0.4,1.4L431,70.2L431,70.2z"/>
	<path class="st0" d="M443.9,75h-1.8v-4.2c0-0.8,0-1.4-0.1-1.7s-0.2-0.5-0.4-0.7c-0.2-0.2-0.4-0.2-0.6-0.2c-0.3,0-0.6,0.1-0.8,0.3
		c-0.2,0.2-0.4,0.5-0.5,0.8s-0.1,1-0.1,1.9V75h-1.8v-8.3h1.7v1.2c0.3-0.5,0.6-0.8,1-1.1s0.8-0.3,1.2-0.3c0.5,0,1,0.1,1.3,0.4
		c0.4,0.3,0.6,0.6,0.8,1.1s0.2,1.1,0.2,1.9V75L443.9,75z"/>
	<path class="st0" d="M448.5,72.7l1.8-0.3c0.2,0.9,0.6,1.3,1.5,1.3c0.4,0,0.8-0.1,1-0.2c0.2-0.2,0.3-0.4,0.3-0.7
		c0-0.2,0-0.3-0.1-0.4c-0.1-0.1-0.3-0.2-0.6-0.3c-1.5-0.4-2.4-0.8-2.8-1.1c-0.5-0.4-0.8-1.1-0.8-1.8s0.2-1.4,0.7-1.9
		c0.5-0.5,1.2-0.7,2.1-0.7s1.6,0.2,2,0.5s0.8,0.9,1,1.7l-1.7,0.4c-0.1-0.7-0.6-1-1.3-1c-0.4,0-0.8,0.1-1,0.2s-0.3,0.3-0.3,0.5
		c0,0.2,0.1,0.3,0.3,0.4c0.2,0.1,0.7,0.3,1.6,0.6c1,0.3,1.7,0.6,2,1c0.4,0.4,0.5,0.9,0.5,1.6c0,0.8-0.3,1.5-0.8,2s-1.3,0.8-2.3,0.8
		c-0.9,0-1.6-0.2-2.2-0.7S448.7,73.5,448.5,72.7L448.5,72.7z"/>
</g>
<g>
	<path class="st1" d="M415.6,33.1c0,5.3-4.3,9.5-9.7,9.5s-9.7-4.3-9.7-9.5s4.3-9.5,9.7-9.5S415.6,27.8,415.6,33.1"/>
	<path class="st2" d="M405.8,23.1c5.6,0,10.1,4.4,10.1,10s-4.5,10-10.1,10s-10-4.4-10-10S400.2,23.1,405.8,23.1 M403.8,30.2h-6.6
		l5.4,4l-1.6,6.5l5.1-4l5,4l-1.6-6.5l5.4-4H408l-2.1-6.2L403.8,30.2L403.8,30.2z"/>
	<g>
		<g>
			<path class="st0" d="M433.7,46.9c-6.9,0-11.6-4.2-11.6-13.7c0-8.6,4.9-13.7,11.8-13.7s11.7,3.8,11.7,13.7
				C445.6,42.2,440.4,46.9,433.7,46.9 M433.8,24.5c-3.4,0-5.5,2.2-5.5,8.8s1.8,8.8,5.4,8.8s5.7-2.2,5.7-8.8S437.4,24.5,433.8,24.5"
				/>
			<path class="st0" d="M465,25.8c-0.6-0.1-1.5-0.2-2.4-0.2c-1.8,0-3.5,0.4-5.3,1.8v19.1h-5.8V20.2c1.6-0.2,4-0.4,5.8-0.4v3.4h0.3
				c2.6-3.4,4.4-3.7,6-3.7c0.5,0,1.3,0.1,1.9,0.3C465.6,21.8,465.3,23.9,465,25.8"/>
			<path class="st0" d="M478.7,57.3c-8,0-10.6-3.5-10.6-7.7c0-2.1,0.8-3.4,2.4-5.1c-0.6-1-1.2-2.3-1.6-3.5c0.4-1.5,1.5-4.7,2.9-6.4
				c-1.8-1.3-3-3.5-3-6.3c0-5.3,3.5-8.9,9.5-8.9c1,0,1.8,0.1,2.6,0.3c0-5,2.9-7.1,6.4-7.1c2.3,0,3.4,1.1,3.4,3.1v1.9h-2.8
				c-2,0-2.9,0.9-2.9,2.9v1.1c2,1.5,3,3.9,3,6.7c0,5.8-3.9,8.4-9.1,8.4c-1.3,0-2.6-0.2-3.5-0.5c-0.9,1.2-1.2,2.3-1.2,3
				c0,1.1,0.5,1.5,1.6,1.5h7.2c4.6,0,7.6,1.6,7.6,7.1S486.8,57.4,478.7,57.3 M482.7,46H474c-0.6,0.7-0.7,1.8-0.7,2.5
				c0,2.9,1.3,4,5.8,4c3.9,0,6.1-1.2,6.1-4.1C485.2,46.5,484.6,46,482.7,46 M478.6,23.6c-2.8,0-4.2,1.4-4.2,4.5s1.5,4.5,4.2,4.5
				s4.2-1.2,4.2-4.5S481.2,23.6,478.6,23.6"/>
		</g>
		<g>
			<path class="st0" d="M28.5,46.4h-6.9c-3.7-11-7.2-22.4-10.1-33.8c1.9-0.4,4.7-0.6,6.2-0.6l6.8,24.5c0.2,0.8,0.4,1.8,0.5,2.8h0.5
				c0-1,0.3-1.9,0.5-2.8l6.9-24.5c1.6,0,4.3,0.2,5.9,0.6C35.8,24.2,32.3,35.3,28.5,46.4"/>
			<path class="st0" d="M52.5,46.9c-6.9,0-11.6-4.2-11.6-13.7c0-8.6,4.9-13.7,11.8-13.7s11.7,3.8,11.7,13.7
				C64.4,42.2,59.2,46.9,52.5,46.9 M52.7,24.5c-3.4,0-5.5,2.2-5.5,8.8s1.8,8.8,5.4,8.8s5.7-2.2,5.7-8.8S56.2,24.5,52.7,24.5"/>
			<path class="st0" d="M79.1,46.9c-5.9,0-8.4-2.9-8.4-9.1V25.1h-3.1V20h3.1v-5.6c1.7-0.4,4-0.9,5.8-1V20h6.8c0,1.6-0.1,3.3-0.4,5.1
				h-6.4v13.2c0,2.7,1,3.3,3.4,3.3c1.3,0,2.9-0.3,3.8-0.8c0.4,1.5,0.7,3.3,0.8,5C83,46.5,80.5,46.9,79.1,46.9"/>
			<path class="st0" d="M108.4,34.7H93.6v0.5c0,4.3,1.4,6.3,6.4,6.3c2.4,0,5.4-0.7,7-1.6c0.6,1.5,1.1,3.6,1.3,5.4
				c-2.2,1.1-5.9,1.7-8.4,1.7c-8.1,0-12.6-4.5-12.6-13.4c0-9.5,4.8-14.1,11.3-14.1c6.9,0,10.1,4.4,10.1,11.3
				C108.6,31.9,108.6,33.5,108.4,34.7 M93.6,30.8h9.2c0.1-0.3,0.1-1.2,0.1-1.5c0-3.7-1.5-5.4-4.4-5.4S93.7,26,93.6,30.8"/>
			<path class="st0" d="M134.2,14.1c-0.5-0.1-1.9-0.1-2.6-0.1c-2,0-2.8,0.9-2.8,3.2V20h5.8c0,1.7-0.1,3.4-0.4,5.1h-5.4v22.3
				c0,5.4-2.8,10-8.5,10c-1,0-2.4-0.2-3-0.2c0-1.7,0.1-3.4,0.3-5.2c0.5,0.1,2,0.2,2.6,0.2c2,0,2.8-1.1,2.8-3.2V25.1h-3V20h3v-2.3
				c0-5.5,3.7-8.9,8.5-8.9c1,0,2.5,0.1,3.1,0.2C134.6,10.7,134.5,12.4,134.2,14.1"/>
			<path class="st0" d="M152.8,25.8c-0.6-0.1-1.5-0.2-2.4-0.2c-1.8,0-3.5,0.4-5.3,1.8v19.1h-5.8V20.2c1.6-0.2,3.9-0.4,5.8-0.4v3.4
				h0.3c2.6-3.4,4.4-3.7,6-3.7c0.5,0,1.3,0.1,1.9,0.3C153.4,21.8,153.1,23.9,152.8,25.8"/>
			<path class="st0" d="M166.7,46.9c-6.9,0-11.6-4.2-11.6-13.7c0-8.6,4.9-13.7,11.8-13.7s11.7,3.8,11.7,13.7
				C178.6,42.2,173.4,46.9,166.7,46.9 M166.8,24.5c-3.4,0-5.5,2.2-5.5,8.8s1.8,8.8,5.4,8.8s5.7-2.2,5.7-8.8S170.4,24.5,166.8,24.5"
				/>
			<path class="st0" d="M212,46.4V28.1c0-2.1-0.9-3.5-3.6-3.5c-1.9,0-3.4,0.6-4.9,1.7v20.1h-5.8V28.2c0-2.2-0.9-3.5-3.5-3.5
				c-1.8,0-3.4,0.6-5,1.7v20.1h-5.8V20.2c1.6-0.2,3.9-0.4,5.8-0.4v2.6h0.3c2.4-2.2,4.3-3,6.8-3s4.8,0.9,5.9,3.4
				c2.6-2.6,4.9-3.4,7.7-3.4c4.3,0,7.6,2.2,7.6,8.1v18.8H212L212,46.4z"/>
			<path class="st0" d="M249.3,46.7l-2.8-9.3h-10.7l-2.8,9.3c-1.9,0-3.9-0.2-5.7-0.5c3.1-11,6.7-22.3,10.7-33.8h6.9
				c3.7,11.2,7.4,22.9,10.5,33.8C253.6,46.5,251.4,46.7,249.3,46.7 M241.8,21.3c-0.2-0.8-0.4-1.6-0.4-2.6H241
				c-0.1,1.1-0.1,1.8-0.4,2.6l-3.3,10.8h7.7L241.8,21.3z"/>
			<path class="st0" d="M271,46.9c-4,0-7.5-0.9-10.3-3V9.2c1.6-0.2,4-0.4,5.8-0.4v13.5h0.3c2.1-2.1,4.1-2.8,6.6-2.8
				c5.4,0,9.5,3.5,9.5,12.7S278.4,46.9,271,46.9 M271.6,24.6c-1.9,0-3.7,0.6-5.1,1.8v14.4c1.1,0.8,2.7,1.1,4.2,1.1
				c4.2,0,6-2.4,6-9.1C276.7,26.4,274.9,24.6,271.6,24.6"/>
			<path class="st0" d="M301.9,25.8c-0.6-0.1-1.5-0.2-2.4-0.2c-1.8,0-3.5,0.4-5.3,1.8v19.1h-5.8V20.2c1.6-0.2,3.9-0.4,5.8-0.4v3.4
				h0.3c2.6-3.4,4.3-3.7,6-3.7c0.5,0,1.3,0.1,1.9,0.3C302.4,21.8,302.2,23.9,301.9,25.8"/>
			<path class="st0" d="M317.1,46.9c-6.9,0-11.6-4.2-11.6-13.7c0-8.6,4.9-13.7,11.8-13.7S329,23.4,329,33.2
				C329,42.2,323.8,46.9,317.1,46.9 M317.2,24.5c-3.4,0-5.5,2.2-5.5,8.8s1.8,8.8,5.4,8.8s5.7-2.2,5.7-8.8S320.8,24.5,317.2,24.5"/>
			<path class="st0" d="M356.1,39.3c0,1.3,0.4,1.8,1.5,1.8h3V43c0,2.9-2,3.9-4.2,3.9c-2,0-4.1-0.7-5.2-3.5H351
				c-2.3,2.5-4.7,3.5-7.1,3.5c-6.1,0-9.6-4.2-9.6-13c0-9.5,4.6-14.5,11.5-14.5c1.5,0,3,0.3,4.5,0.7c0.9-0.4,2.3-0.6,3.6-0.6
				c0.8,0,1.6,0.1,2.2,0.2V39.3z M350.3,25.5c-1-0.6-2.5-1-3.9-1c-4,0-5.9,2.1-5.9,8.9s1.6,8.4,5.1,8.4c2,0,3.5-0.5,4.8-1.3
				L350.3,25.5L350.3,25.5z"/>
			<path class="st0" d="M386.9,46.9c-2,0-4.2-0.7-5.2-3.5h-0.2c-2.7,2.9-5.3,3.5-7.7,3.5c-6.1,0-9.3-4.5-9.3-13
				c0-10.3,4.8-14.5,11.5-14.5c1.5,0,3.4,0.3,4.9,0.8V9.2c1.6-0.2,4-0.4,5.8-0.4v30.6c0,1.3,0.4,1.8,1.5,1.8h3V43
				C391.1,46,389.1,46.9,386.9,46.9 M380.8,25.5c-1-0.6-2.8-1.1-4.3-1.1c-4,0-5.9,2.2-5.9,9s1.6,8.4,5.1,8.4c2,0,3.7-0.4,5.2-1.3
				V25.5L380.8,25.5z"/>
		</g>
	</g>
</g>
</svg>
