<svg xmlns="http://www.w3.org/2000/svg" viewBox="0 0 504.8 85.8">
<path fill="#fff" d="M147.1 75H145l-.8-2.6h-3.8l-.8 2.6h-2l3.7-11.5h2zm-3.5-4.5-1.3-4.2-1.3 4.2zm7.8 4.5V63.6h1.8v4.1q.45-.6.9-.9c.3-.2.7-.3 1.1-.3.8 0 1.5.4 2 1.1.6.7.8 1.8.8 3.2s-.3 2.5-.9 3.2-1.2 1.1-2 1.1c-.4 0-.8-.1-1.1-.4-.4-.2-.7-.6-1-1.1V75zm1.8-4.3c0 .7.1 1.3.2 1.6q.15.6.6.9c.45.3.5.3.8.3.4 0 .7-.2 1-.6s.4-1.1.4-2-.1-1.6-.4-2.1c-.3-.4-.6-.6-1.1-.6s-.8.2-1.1.6-.4 1.1-.4 1.9m9.2 2 1.8-.3c.2.9.6 1.3 1.4 1.3.4 0 .8-.1 1-.2.2-.2.3-.4.3-.7 0-.2-.1-.3-.1-.4q-.15-.15-.6-.3c-1.5-.4-2.4-.8-2.8-1.1-.5-.4-.8-1.1-.8-1.8s.2-1.4.7-1.9 1.2-.7 2.1-.7 1.6.2 2 .5c.5.3.8.9 1 1.7l-1.7.4c-.1-.7-.6-1-1.3-1-.4 0-.8.1-.9.2s-.3.3-.3.5.1.3.3.4.7.3 1.6.6c1 .3 1.7.6 2.1 1s.5.9.5 1.6c0 .8-.3 1.5-.8 2-.6.5-1.3.8-2.3.8-.9 0-1.6-.2-2.2-.7s-.9-1.1-1-1.9m15.3-.3 1.8.4c-.2.8-.6 1.4-1.1 1.9-.5.4-1.1.6-1.9.6-1 0-1.8-.3-2.3-1-.6-.8-1-1.9-1-3.3s.3-2.5 1-3.3c.6-.7 1.3-1.1 2.1-1.1 1 0 1.7.4 2.3 1.1.6.8.9 2 .9 3.7v.2H175c0 .7.2 1.2.4 1.5.3.4.6.5 1 .5.7 0 1.1-.4 1.3-1.2m.1-2.2c0-.7-.1-1.1-.4-1.5-.3-.3-.6-.5-.9-.5-.4 0-.7.2-1 .5s-.4.8-.4 1.4zm12.8 4.8h-1.8v-4.2c0-.8 0-1.4-.1-1.7s-.2-.5-.4-.7-.4-.2-.6-.2c-.3 0-.6.1-.8.3s-.4.5-.5.8-.1 1-.1 1.9V75h-1.8v-8.3h1.7v1.2c.3-.5.6-.8 1-1.1s.8-.3 1.2-.3c.5 0 1 .1 1.3.4.4.3.6.6.8 1.1s.2 1.1.2 1.9zm8.4-8.3v1.8h-1.2v3.3c0 .7 0 1.2.1 1.3.1.2.2.3.4.3s.4-.1.7-.2l.2 1.7c-.4.2-.9.3-1.4.3s-.8-.1-1.1-.3q-.45-.3-.6-.9c-.1-.3-.1-.9-.1-1.8v-3.6h-.8v-1.8h.8v-1.7l1.8-1.3v2.9zm8.7 5.7 1.8.4c-.2.8-.6 1.4-1.1 1.9-.5.4-1.1.6-1.9.6-1 0-1.8-.3-2.3-1-.6-.8-1-1.9-1-3.3s.3-2.5 1-3.3c.6-.7 1.3-1.1 2.1-1.1 1 0 1.7.4 2.3 1.1.6.8.9 2 .9 3.7v.2H205c0 .7.2 1.2.4 1.5.3.4.6.5 1 .5.7 0 1.1-.4 1.3-1.2m.1-2.2c0-.7-.1-1.1-.4-1.5-.3-.3-.6-.5-.9-.5-.4 0-.7.2-1 .5s-.4.8-.4 1.4zm10.6 2.2 1.8.4c-.2.8-.6 1.4-1.1 1.9-.5.4-1.1.6-1.9.6-1 0-1.8-.3-2.3-1-.6-.8-1-1.9-1-3.3s.3-2.5 1-3.3c.6-.7 1.3-1.1 2.1-1.1 1 0 1.7.4 2.3 1.1.6.8.9 2 .9 3.7v.2h-4.5c0 .7.2 1.2.4 1.5.3.4.6.5 1 .5.7 0 1.1-.4 1.3-1.2m.1-2.2c0-.7-.1-1.1-.4-1.5-.3-.3-.6-.5-.9-.5-.4 0-.7.2-1 .5s-.4.8-.4 1.4zm13.8-6.6h3.8c1 0 1.8.1 2.2.3s.8.5 1.1 1 .4 1 .4 1.6-.1 1.1-.4 1.5-.6.8-1 1c.6.2 1 .5 1.3 1s.5 1.1.5 1.8q0 1.2-.6 2.1c-.4.6-.9.9-1.4 1.1-.4.1-1.3.1-2.6.1h-3.2zm1.9 1.9v2.7h2.6c.3-.1.6-.2.8-.4s.3-.5.3-.9c0-.3-.1-.6-.2-.8s-.3-.3-.5-.4-.8-.1-1.8-.1zm0 4.6v3.1h1.8c.8 0 1.3 0 1.5-.1s.4-.2.6-.5c.1-.2.2-.5.2-.9s-.1-.7-.2-.9-.4-.4-.6-.5c-.3-.1-.8-.1-1.6-.1zm12.3-.8-1.6-.4c.2-.8.5-1.4 1-1.8s1.1-.6 2-.6c.8 0 1.3.1 1.7.3q.6.3.9.9c.3.6.3 1 .3 2v2.6c0 .7 0 1.3.1 1.6s.2.7.3 1.1h-1.8l-.2-.9c-.3.4-.6.6-1 .8s-.7.3-1.1.3c-.7 0-1.2-.2-1.6-.7s-.6-1-.6-1.8q0-.75.3-1.2c.2-.3.4-.6.7-.8s.8-.4 1.5-.6c.8-.2 1.4-.4 1.7-.5 0-.5 0-.8-.1-.9s-.2-.3-.4-.3-.4-.1-.7-.1-.6.1-.8.2-.4.3-.6.8m2.4 1.8c-.2.1-.6.2-1.1.3-.6.2-.9.3-1.1.5s-.3.4-.3.7.1.6.3.8.4.3.7.3c.2 0 .5-.1.8-.3.2-.2.4-.4.5-.6s.1-.7.1-1.3v-.4zm7 3.9V63.6h1.8V75zm7.1 0V63.6h1.8V75zm6.7-4.2c0-.8.2-1.6.5-2.2.3-.7.8-1.2 1.3-1.5s1.1-.5 1.8-.5c1.1 0 2 .4 2.6 1.3s.9 1.9.9 3c0 .9-.2 1.6-.5 2.3s-.8 1.2-1.3 1.6-1.1.5-1.7.5c-1 0-1.9-.4-2.5-1.2-.8-.8-1.1-1.9-1.1-3.3m1.8.1c0 .8.2 1.5.5 1.9s.7.7 1.2.7.8-.2 1.2-.7c.3-.4.5-1.1.5-1.9s-.2-1.5-.5-1.9-.7-.7-1.2-.7-.8.2-1.2.7-.5 1.1-.5 1.9m13.2-4.2v1.8h-1.2v4.6c.1.2.2.3.5.3.2 0 .4-.1.7-.2l.2 1.7c-.4.2-.9.3-1.4.3s-.8-.1-1.1-.3-.5-.5-.5-.9c-.1-.3-.1-.9-.1-1.8v-3.6h-.8v-1.8h.8v-1.7l1.8-1.3v2.9zm4 6 1.8-.3c.2.9.6 1.3 1.5 1.3.4 0 .8-.1 1-.2.2-.2.3-.4.3-.7 0-.2 0-.3-.1-.4q-.15-.15-.6-.3c-1.5-.4-2.4-.8-2.8-1.1-.5-.4-.8-1.1-.8-1.8s.2-1.4.7-1.9 1.2-.7 2.1-.7 1.6.2 2 .5.8.9 1 1.7l-1.7.4c-.1-.7-.6-1-1.3-1-.4 0-.8.1-1 .2s-.3.3-.3.5.1.3.3.4.7.3 1.6.6c1 .3 1.7.6 2 1 .4.4.5.9.5 1.6 0 .8-.3 1.5-.8 2s-1.3.8-2.3.8c-.9 0-1.6-.2-2.2-.7s-.7-1.1-.9-1.9m17.7-6h1v-.6c0-.8.1-1.3.2-1.6s.4-.6.7-.8q.45-.3 1.2-.3t1.5.3l-.2 1.5c-.3-.1-.6-.1-.8-.1s-.4.1-.5.2-.2.4-.2.9v.6h1.3v1.7h-1.3V75h-1.8v-6.6h-1zm8.2 4.1c0-.8.2-1.6.5-2.2.3-.7.8-1.2 1.3-1.5s1.1-.5 1.8-.5c1.1 0 2 .4 2.6 1.3s.9 1.9.9 3c0 .9-.2 1.6-.5 2.3s-.8 1.2-1.3 1.6-1.1.5-1.7.5c-1 0-1.9-.4-2.5-1.2-.8-.8-1.1-1.9-1.1-3.3m1.8.1c0 .8.2 1.5.5 1.9s.7.7 1.2.7.8-.2 1.2-.7c.3-.4.5-1.1.5-1.9s-.2-1.5-.5-1.9-.7-.7-1.2-.7-.8.2-1.2.7-.5 1.1-.5 1.9m11.8 4.1h-1.8v-8.3h1.7v1.2c.3-.6.5-.9.8-1.1.2-.2.5-.3.8-.3.4 0 .8.1 1.2.4l-.6 1.9c-.3-.2-.6-.4-.8-.4s-.5.1-.7.3-.3.5-.4 1-.1 1.4-.1 2.7zm13.9-11.4h1.9v6.2c0 1 0 1.6.1 1.9q.15.75.6 1.2c.3.3.7.4 1.2.4.4 0 .8-.1 1.1-.3s.5-.5.6-.8.1-1.1.1-2.2v-6.3h1.9v6c0 1.5-.1 2.7-.2 3.3-.2.7-.5 1.2-1.1 1.7-.6.4-1.3.6-2.3.6s-1.7-.2-2.3-.5-1-.8-1.2-1.5c-.2-.6-.4-1.8-.4-3.5zM353.4 75v-2.2h1.8V75zm5.1-3.7 1.9-.2c.2 1.5.9 2.2 2 2.2.6 0 1-.2 1.4-.4.3-.3.5-.7.5-1.1 0-.3-.1-.5-.2-.7s-.3-.3-.5-.4-.8-.3-1.7-.6c-.8-.2-1.4-.5-1.8-.8s-.7-.7-.9-1.1-.3-1-.3-1.5c0-.6.1-1.2.4-1.7s.7-.9 1.2-1.1c.5-.3 1.1-.4 1.9-.4 1.1 0 2 .3 2.6.9s1 1.5 1 2.6l-1.9.1c-.1-.6-.3-1-.5-1.3-.3-.2-.7-.4-1.2-.4s-.9.1-1.2.3-.4.5-.4.8.1.6.4.8c.2.2.8.4 1.7.7 1 .3 1.6.6 2.1.9.4.3.8.7 1 1.2s.3 1.1.3 1.8c0 1-.3 1.8-.9 2.5s-1.6 1-2.9 1c-2.5-.2-3.7-1.5-4-4.1m11 3.7v-2.2h1.8V75zm18.6-4.2 1.8.7c-.3 1.3-.8 2.2-1.4 2.8-.7.6-1.5.9-2.5.9-1.2 0-2.2-.5-3-1.4-.9-1.1-1.3-2.6-1.3-4.4 0-1.9.4-3.5 1.3-4.6.8-1 1.8-1.4 3.1-1.4 1 0 1.9.4 2.6 1.1.5.5.9 1.3 1.1 2.3l-1.9.6c-.1-.6-.4-1.1-.7-1.4-.4-.3-.8-.5-1.3-.5-.7 0-1.3.3-1.7.9s-.7 1.6-.7 3 .2 2.5.6 3.1 1 .9 1.7.9c.5 0 .9-.2 1.3-.6.5-.5.8-1.1 1-2m6.9-5.2v-2h1.8v2zm0 9.4v-8.3h1.8V75zm10.1-8.3v1.8h-1.2v4.6c.1.2.2.3.5.3.2 0 .4-.1.7-.2l.2 1.7c-.4.2-.9.3-1.4.3s-.8-.1-1.1-.3-.5-.5-.5-.9c-.1-.3-.1-.9-.1-1.8v-3.6h-.8v-1.8h.8v-1.7l1.8-1.3v2.9zm4.8-1.1v-2h1.8v2zm0 9.4v-8.3h1.8V75zm6.3 0v-1.7l2.5-3.6q.6-.9.9-1.2h-3.2v-1.8h5.6v1.6l-2.6 3.7-.9 1.2c.5 0 .8-.1.9-.1h2.8V75zm14.7-2.6 1.8.4c-.2.8-.6 1.4-1.1 1.9-.5.4-1.1.6-1.9.6-1 0-1.8-.3-2.3-1-.6-.8-1-1.9-1-3.3s.3-2.5 1-3.3c.5-.7 1.3-1.1 2.1-1.1 1 0 1.7.4 2.3 1.1.6.8 1 2 1 3.7v.2h-4.5c0 .7.2 1.2.4 1.5.3.4.6.5 1 .5q.9 0 1.2-1.2m.1-2.2c0-.7-.1-1.1-.4-1.5-.3-.3-.6-.5-.9-.5-.4 0-.7.2-1 .5s-.4.8-.4 1.4zm12.9 4.8h-1.8v-4.2c0-.8 0-1.4-.1-1.7s-.2-.5-.4-.7-.4-.2-.6-.2c-.3 0-.6.1-.8.3s-.4.5-.5.8-.1 1-.1 1.9V75h-1.8v-8.3h1.7v1.2c.3-.5.6-.8 1-1.1s.8-.3 1.2-.3c.5 0 1 .1 1.3.4.4.3.6.6.8 1.1s.2 1.1.2 1.9V75zm4.6-2.3 1.8-.3c.2.9.6 1.3 1.5 1.3.4 0 .8-.1 1-.2.2-.2.3-.4.3-.7 0-.2 0-.3-.1-.4q-.15-.15-.6-.3c-1.5-.4-2.4-.8-2.8-1.1-.5-.4-.8-1.1-.8-1.8s.2-1.4.7-1.9 1.2-.7 2.1-.7 1.6.2 2 .5.8.9 1 1.7l-1.7.4c-.1-.7-.6-1-1.3-1-.4 0-.8.1-1 .2s-.3.3-.3.5.1.3.3.4.7.3 1.6.6c1 .3 1.7.6 2 1 .4.4.5.9.5 1.6 0 .8-.3 1.5-.8 2s-1.3.8-2.3.8c-.9 0-1.6-.2-2.2-.7s-.7-1.1-.9-1.9" />
<path fill="#fff" d="M415.6 33.1c0 5.3-4.3 9.5-9.7 9.5s-9.7-4.3-9.7-9.5 4.3-9.5 9.7-9.5 9.7 4.2 9.7 9.5" />
<path fill="#bf2026" d="M405.8 23.1c5.6 0 10.1 4.4 10.1 10s-4.5 10-10.1 10-10-4.4-10-10 4.4-10 10-10m-2 7.1h-6.6l5.4 4-1.6 6.5 5.1-4 5 4-1.6-6.5 5.4-4H408l-2.1-6.2z" />
<path fill="#fff" d="M433.7 46.9c-6.9 0-11.6-4.2-11.6-13.7 0-8.6 4.9-13.7 11.8-13.7s11.7 3.8 11.7 13.7c0 9-5.2 13.7-11.9 13.7m.1-22.4c-3.4 0-5.5 2.2-5.5 8.8s1.8 8.8 5.4 8.8 5.7-2.2 5.7-8.8-2-8.8-5.6-8.8m31.2 1.3c-.6-.1-1.5-.2-2.4-.2-1.8 0-3.5.4-5.3 1.8v19.1h-5.8V20.2c1.6-.2 4-.4 5.8-.4v3.4h.3c2.6-3.4 4.4-3.7 6-3.7.5 0 1.3.1 1.9.3.1 2-.2 4.1-.5 6m13.7 31.5c-8 0-10.6-3.5-10.6-7.7 0-2.1.8-3.4 2.4-5.1-.6-1-1.2-2.3-1.6-3.5.4-1.5 1.5-4.7 2.9-6.4-1.8-1.3-3-3.5-3-6.3 0-5.3 3.5-8.9 9.5-8.9 1 0 1.8.1 2.6.3 0-5 2.9-7.1 6.4-7.1 2.3 0 3.4 1.1 3.4 3.1v1.9h-2.8c-2 0-2.9.9-2.9 2.9v1.1c2 1.5 3 3.9 3 6.7 0 5.8-3.9 8.4-9.1 8.4-1.3 0-2.6-.2-3.5-.5-.9 1.2-1.2 2.3-1.2 3 0 1.1.5 1.5 1.6 1.5h7.2c4.6 0 7.6 1.6 7.6 7.1s-3.8 9.6-11.9 9.5m4-11.3H474c-.6.7-.7 1.8-.7 2.5 0 2.9 1.3 4 5.8 4 3.9 0 6.1-1.2 6.1-4.1 0-1.9-.6-2.4-2.5-2.4m-4.1-22.4c-2.8 0-4.2 1.4-4.2 4.5s1.5 4.5 4.2 4.5 4.2-1.2 4.2-4.5-1.6-4.5-4.2-4.5M28.5 46.4h-6.9c-3.7-11-7.2-22.4-10.1-33.8 1.9-.4 4.7-.6 6.2-.6l6.8 24.5c.2.8.4 1.8.5 2.8h.5c0-1 .3-1.9.5-2.8L32.9 12c1.6 0 4.3.2 5.9.6-3 11.6-6.5 22.7-10.3 33.8m24 .5c-6.9 0-11.6-4.2-11.6-13.7 0-8.6 4.9-13.7 11.8-13.7s11.7 3.8 11.7 13.7c0 9-5.2 13.7-11.9 13.7m.2-22.4c-3.4 0-5.5 2.2-5.5 8.8s1.8 8.8 5.4 8.8 5.7-2.2 5.7-8.8-2.1-8.8-5.6-8.8m26.4 22.4c-5.9 0-8.4-2.9-8.4-9.1V25.1h-3.1V20h3.1v-5.6c1.7-.4 4-.9 5.8-1V20h6.8c0 1.6-.1 3.3-.4 5.1h-6.4v13.2c0 2.7 1 3.3 3.4 3.3 1.3 0 2.9-.3 3.8-.8.4 1.5.7 3.3.8 5-1.5.7-4 1.1-5.4 1.1m29.3-12.2H93.6v.5c0 4.3 1.4 6.3 6.4 6.3 2.4 0 5.4-.7 7-1.6.6 1.5 1.1 3.6 1.3 5.4-2.2 1.1-5.9 1.7-8.4 1.7-8.1 0-12.6-4.5-12.6-13.4 0-9.5 4.8-14.1 11.3-14.1 6.9 0 10.1 4.4 10.1 11.3-.1 1.1-.1 2.7-.3 3.9m-14.8-3.9h9.2c.1-.3.1-1.2.1-1.5 0-3.7-1.5-5.4-4.4-5.4s-4.8 2.1-4.9 6.9m40.6-16.7c-.5-.1-1.9-.1-2.6-.1-2 0-2.8.9-2.8 3.2V20h5.8c0 1.7-.1 3.4-.4 5.1h-5.4v22.3c0 5.4-2.8 10-8.5 10-1 0-2.4-.2-3-.2 0-1.7.1-3.4.3-5.2.5.1 2 .2 2.6.2 2 0 2.8-1.1 2.8-3.2V25.1h-3V20h3v-2.3c0-5.5 3.7-8.9 8.5-8.9 1 0 2.5.1 3.1.2 0 1.7-.1 3.4-.4 5.1m18.6 11.7c-.6-.1-1.5-.2-2.4-.2-1.8 0-3.5.4-5.3 1.8v19.1h-5.8V20.2c1.6-.2 3.9-.4 5.8-.4v3.4h.3c2.6-3.4 4.4-3.7 6-3.7.5 0 1.3.1 1.9.3.1 2-.2 4.1-.5 6m13.9 21.1c-6.9 0-11.6-4.2-11.6-13.7 0-8.6 4.9-13.7 11.8-13.7s11.7 3.8 11.7 13.7c0 9-5.2 13.7-11.9 13.7m.1-22.4c-3.4 0-5.5 2.2-5.5 8.8s1.8 8.8 5.4 8.8 5.7-2.2 5.7-8.8-2-8.8-5.6-8.8M212 46.4V28.1c0-2.1-.9-3.5-3.6-3.5-1.9 0-3.4.6-4.9 1.7v20.1h-5.8V28.2c0-2.2-.9-3.5-3.5-3.5-1.8 0-3.4.6-5 1.7v20.1h-5.8V20.2c1.6-.2 3.9-.4 5.8-.4v2.6h.3c2.4-2.2 4.3-3 6.8-3s4.8.9 5.9 3.4c2.6-2.6 4.9-3.4 7.7-3.4 4.3 0 7.6 2.2 7.6 8.1v18.8H212zm37.3.3-2.8-9.3h-10.7l-2.8 9.3c-1.9 0-3.9-.2-5.7-.5 3.1-11 6.7-22.3 10.7-33.8h6.9c3.7 11.2 7.4 22.9 10.5 33.8-1.8.3-4 .5-6.1.5m-7.5-25.4c-.2-.8-.4-1.6-.4-2.6h-.4c-.1 1.1-.1 1.8-.4 2.6l-3.3 10.8h7.7zM271 46.9c-4 0-7.5-.9-10.3-3V9.2c1.6-.2 4-.4 5.8-.4v13.5h.3c2.1-2.1 4.1-2.8 6.6-2.8 5.4 0 9.5 3.5 9.5 12.7s-4.5 14.7-11.9 14.7m.6-22.3c-1.9 0-3.7.6-5.1 1.8v14.4c1.1.8 2.7 1.1 4.2 1.1 4.2 0 6-2.4 6-9.1 0-6.4-1.8-8.2-5.1-8.2m30.3 1.2c-.6-.1-1.5-.2-2.4-.2-1.8 0-3.5.4-5.3 1.8v19.1h-5.8V20.2c1.6-.2 3.9-.4 5.8-.4v3.4h.3c2.6-3.4 4.3-3.7 6-3.7.5 0 1.3.1 1.9.3 0 2-.2 4.1-.5 6m15.2 21.1c-6.9 0-11.6-4.2-11.6-13.7 0-8.6 4.9-13.7 11.8-13.7S329 23.4 329 33.2c0 9-5.2 13.7-11.9 13.7m.1-22.4c-3.4 0-5.5 2.2-5.5 8.8s1.8 8.8 5.4 8.8 5.7-2.2 5.7-8.8-2-8.8-5.6-8.8m38.9 14.8c0 1.3.4 1.8 1.5 1.8h3V43c0 2.9-2 3.9-4.2 3.9-2 0-4.1-.7-5.2-3.5h-.2c-2.3 2.5-4.7 3.5-7.1 3.5-6.1 0-9.6-4.2-9.6-13 0-9.5 4.6-14.5 11.5-14.5 1.5 0 3 .3 4.5.7.9-.4 2.3-.6 3.6-.6.8 0 1.6.1 2.2.2zm-5.8-13.8c-1-.6-2.5-1-3.9-1-4 0-5.9 2.1-5.9 8.9s1.6 8.4 5.1 8.4c2 0 3.5-.5 4.8-1.3zm36.6 21.4c-2 0-4.2-.7-5.2-3.5h-.2c-2.7 2.9-5.3 3.5-7.7 3.5-6.1 0-9.3-4.5-9.3-13 0-10.3 4.8-14.5 11.5-14.5 1.5 0 3.4.3 4.9.8v-11c1.6-.2 4-.4 5.8-.4v30.6c0 1.3.4 1.8 1.5 1.8h3V43c-.1 3-2.1 3.9-4.3 3.9m-6.1-21.4c-1-.6-2.8-1.1-4.3-1.1-4 0-5.9 2.2-5.9 9s1.6 8.4 5.1 8.4c2 0 3.7-.4 5.2-1.3v-15z" />
</svg>
